<svg xmlns="http://www.w3.org/2000/svg" viewBox="0 0 400 300">
  <rect width="400" height="300" fill="#F7F2E7"/>
  <g fill="none" stroke="#2B2620" stroke-width="2.5" stroke-linecap="round" stroke-linejoin="round">
    <path d="M90 190 q10 -60 60 -70 q50 -10 60 20"/>
    <circle cx="210" cy="130" r="22"/>
    <path d="M228 118 l16 -10 M224 108 l10 -14"/>
    <circle cx="216" cy="126" r="2.5" fill="#2B2620"/>
    <path d="M95 190 q30 30 40 60 M120 185 q26 26 34 55 M145 178 q22 22 28 50"/>
  </g>
  <g fill="none" stroke="#E85D2C" stroke-width="2.5" stroke-linecap="round">
    <path d="M195 112 l-10 -22 l14 4 z"/>
    <path d="M215 108 l-2 -24 l14 8 z"/>
  </g>
  <g fill="none" stroke="#2B2620" stroke-width="2" stroke-dasharray="4 4">
    <circle cx="140" cy="170" r="10"/>
    <circle cx="165" cy="150" r="10"/>
  </g>
</svg>
