<svg xmlns="http://www.w3.org/2000/svg" viewBox="0 0 400 300">
  <rect width="400" height="300" fill="#F7F2E7"/>
  <polygon points="90.0,150.0 90.0,90.0 160.0,60.0 300.0,60.0 300.0,120.0 230.0,150.0" fill="#F7F2E7" stroke="#2B2620" stroke-width="2.5" stroke-linejoin="round"/>
  <polygon points="90.0,150.0 230.0,150.0 230.0,215.0 90.0,215.0" fill="#F7F2E7" stroke="#2B2620" stroke-width="2.5" stroke-linejoin="round"/>
  <polygon points="230.0,150.0 300.0,120.0 300.0,185.0 230.0,215.0" fill="#2B2620" opacity="0.12" stroke="#2B2620" stroke-width="2.5" stroke-linejoin="round"/>
  <polygon points="118.0,118.0 140.0,112.0 140.0,128.0 118.0,134.0" fill="#F7F2E7" stroke="#2B2620" stroke-width="1.6" stroke-linejoin="round" opacity="1"/>
  <polygon points="118.0,148.0 140.0,142.0 140.0,158.0 118.0,164.0" fill="#F7F2E7" stroke="#2B2620" stroke-width="1.6" stroke-linejoin="round" opacity="1"/>
  <polygon points="152.0,104.0 174.0,98.0 174.0,114.0 152.0,120.0" fill="#F7F2E7" stroke="#2B2620" stroke-width="1.6" stroke-linejoin="round" opacity="1"/>
  <polygon points="152.0,134.0 174.0,128.0 174.0,144.0 152.0,150.0" fill="#F7F2E7" stroke="#2B2620" stroke-width="1.6" stroke-linejoin="round" opacity="1"/>
  <polygon points="186.0,96.0 208.0,90.0 208.0,106.0 186.0,112.0" fill="#F7F2E7" stroke="#2B2620" stroke-width="1.6" stroke-linejoin="round" opacity="1"/>
  <polygon points="186.0,126.0 208.0,120.0 208.0,136.0 186.0,142.0" fill="#338040" stroke="#2B2620" stroke-width="1.6" stroke-linejoin="round" opacity="1"/>
  <polygon points="220.0,102.0 242.0,96.0 242.0,112.0 220.0,118.0" fill="#F7F2E7" stroke="#2B2620" stroke-width="1.6" stroke-linejoin="round" opacity="1"/>
  <polygon points="220.0,132.0 242.0,126.0 242.0,142.0 220.0,148.0" fill="#F7F2E7" stroke="#2B2620" stroke-width="1.6" stroke-linejoin="round" opacity="1"/>
  <polygon points="254.0,114.0 276.0,108.0 276.0,124.0 254.0,130.0" fill="#F7F2E7" stroke="#2B2620" stroke-width="1.6" stroke-linejoin="round" opacity="1"/>
  <polygon points="254.0,144.0 276.0,138.0 276.0,154.0 254.0,160.0" fill="#F7F2E7" stroke="#2B2620" stroke-width="1.6" stroke-linejoin="round" opacity="1"/>
  <g stroke="#2B2620" stroke-width="1.5" fill="none" stroke-dasharray="3 4"><line x1="90" y1="230" x2="230" y2="230"/><line x1="90" y1="230" x2="90" y2="215"/><line x1="230" y1="230" x2="230" y2="215"/></g>
  <text x="130" y="246" font-family="IBM Plex Mono, monospace" font-size="12" fill="#2B2620">f(col, row)</text>
</svg>
