<svg xmlns="http://www.w3.org/2000/svg" viewBox="0 0 400 300">
  <rect width="400" height="300" fill="#F7F2E7"/>
  <g stroke="#2B2620" stroke-width="2" fill="none">
    <rect x="110" y="60" width="180" height="180" />
    <line x1="110" y1="100" x2="290" y2="100" />
    <line x1="110" y1="140" x2="290" y2="140" />
    <line x1="110" y1="180" x2="290" y2="180" />
    <line x1="150" y1="60" x2="150" y2="240" />
    <line x1="190" y1="60" x2="190" y2="240" />
    <line x1="230" y1="60" x2="230" y2="240" />
    <line x1="270" y1="60" x2="270" y2="240" />
  </g>
  <g fill="#2B2620">
    <rect x="150" y="100" width="40" height="40" />
    <rect x="230" y="140" width="40" height="40" />
    <rect x="110" y="180" width="40" height="40" />
    <rect x="270" y="60" width="20" height="40" />
  </g>
  <g fill="#B98B3E" font-family="IBM Plex Mono, monospace" font-size="26" font-weight="bold">
    <text x="118" y="90">U</text>
    <text x="158" y="90">T</text>
    <text x="198" y="90">E</text>
    <text x="238" y="130">A</text>
    <text x="278" y="130">N</text>
  </g>
  <g stroke="#E85D2C" stroke-width="2.5" stroke-linecap="round">
    <path d="M112 250 h60" />
    <path d="M112 262 h40" />
  </g>
</svg>
