<svg xmlns="http://www.w3.org/2000/svg" viewBox="0 0 400 300">
  <rect width="400" height="300" fill="#F7F2E7"/>
  <rect x="30" y="70" width="120" height="150" rx="3" fill="#F7F2E7" stroke="#2B2620" stroke-width="2.5"/>
  <text x="48" y="110" font-family="IBM Plex Mono, monospace" font-size="22" fill="#2B2620">{</text>
  <text x="48" y="140" font-family="IBM Plex Mono, monospace" font-size="12" fill="#2B2620">x_algo:</text>
  <text x="48" y="156" font-family="IBM Plex Mono, monospace" font-size="11" fill="#338040">"x*19.05"</text>
  <text x="48" y="178" font-family="IBM Plex Mono, monospace" font-size="12" fill="#2B2620">z_rot:</text>
  <text x="48" y="194" font-family="IBM Plex Mono, monospace" font-size="11" fill="#338040">"(x-2)*-9"</text>
  <text x="48" y="216" font-family="IBM Plex Mono, monospace" font-size="22" fill="#2B2620">}</text>
  <path d="M158 145 L215 145" stroke="#2B2620" stroke-width="2.5" fill="none"/>
  <path d="M205 137 L217 145 L205 153" stroke="#2B2620" stroke-width="2.5" fill="none" stroke-linejoin="round" stroke-linecap="round"/>
  <polygon points="225.0,150.0 225.0,100.0 270.0,75.0 365.0,75.0 365.0,120.0 320.0,150.0" fill="#F7F2E7" stroke="#2B2620" stroke-width="2.5" stroke-linejoin="round"/>
  <polygon points="225.0,150.0 320.0,150.0 320.0,205.0 225.0,205.0" fill="#F7F2E7" stroke="#2B2620" stroke-width="2.5" stroke-linejoin="round"/>
  <polygon points="320.0,150.0 365.0,120.0 365.0,175.0 320.0,205.0" fill="#2B2620" opacity="0.12" stroke="#2B2620" stroke-width="2.5" stroke-linejoin="round"/>
  <polygon points="250.0,120.0 268.0,115.0 268.0,128.0 250.0,133.0" fill="#F7F2E7" stroke="#2B2620" stroke-width="1.4" stroke-linejoin="round"/>
  <polygon points="250.0,144.0 268.0,139.0 268.0,152.0 250.0,157.0" fill="#F7F2E7" stroke="#2B2620" stroke-width="1.4" stroke-linejoin="round"/>
  <polygon points="277.0,106.0 295.0,101.0 295.0,114.0 277.0,119.0" fill="#338040" stroke="#2B2620" stroke-width="1.4" stroke-linejoin="round"/>
  <polygon points="277.0,130.0 295.0,125.0 295.0,138.0 277.0,143.0" fill="#F7F2E7" stroke="#2B2620" stroke-width="1.4" stroke-linejoin="round"/>
  <polygon points="304.0,102.0 322.0,97.0 322.0,110.0 304.0,115.0" fill="#F7F2E7" stroke="#2B2620" stroke-width="1.4" stroke-linejoin="round"/>
  <polygon points="304.0,126.0 322.0,121.0 322.0,134.0 304.0,139.0" fill="#F7F2E7" stroke="#2B2620" stroke-width="1.4" stroke-linejoin="round"/>
  <polygon points="331.0,114.0 349.0,109.0 349.0,122.0 331.0,127.0" fill="#F7F2E7" stroke="#2B2620" stroke-width="1.4" stroke-linejoin="round"/>
  <polygon points="331.0,138.0 349.0,133.0 349.0,146.0 331.0,151.0" fill="#F7F2E7" stroke="#2B2620" stroke-width="1.4" stroke-linejoin="round"/>
</svg>
